<svg xmlns="http://www.w3.org/2000/svg" viewBox="0 0 24 24">
  <path d="M3,3h7.88v7.88H3V3ZM13.12,3v7.88h7.88V3h-7.88ZM6.94,5.81l1.69-1.69h-3.38l1.69,1.69ZM14.25,9.75v-5.62h5.62v5.62h-5.62ZM5.81,6.94l-1.69-1.69v3.38l1.69-1.69ZM9.75,5.25l-1.69,1.69,1.69,1.69v-3.38ZM6.94,8.06l-1.69,1.69h3.38l-1.69-1.69ZM10.87,21v-7.88H3v7.88h7.88ZM21,21h-7.88v-7.88h7.88v7.88ZM9.75,14.25v5.62l-5.62.06v-5.62l5.62-.06ZM17.06,15.94l1.69-1.69h-3.38l1.69,1.69ZM14.25,18.75l1.69-1.69-1.69-1.69v3.38ZM18.19,17.06l1.69,1.69v-3.38l-1.69,1.69ZM17.06,18.19l-1.69,1.69h3.38l-1.69-1.69Z" />
</svg>